0
SECTION
2
HEADER
9
$ACADVER
1
AC1009
0
ENDSEC
0
SECTION
2
TABLES
0
TABLE
2
LAYER
70
6
0
LAYER
2
A-WALL
70
0
62
1
6
CONTINUOUS
0
LAYER
2
A-DOOR
70
0
62
2
6
CONTINUOUS
0
LAYER
2
A-WINDOW
70
0
62
3
6
CONTINUOUS
0
LAYER
2
A-COLUMN
70
0
62
4
6
CONTINUOUS
0
LAYER
2
A-ROOM
70
0
62
5
6
CONTINUOUS
0
LAYER
2
A-FURN
70
0
62
6
6
CONTINUOUS
0
ENDTAB
0
ENDSEC
0
SECTION
2
ENTITIES
0
POLYLINE
8
A-WALL
66
1
70
1
0
VERTEX
8
A-WALL
10
0.0
20
0.0
0
VERTEX
8
A-WALL
10
20.0
20
0.0
0
VERTEX
8
A-WALL
10
20.0
20
12.0
0
VERTEX
8
A-WALL
10
0.0
20
12.0
0
SEQEND
8
A-WALL
0
LINE
8
A-WALL
10
10.0
20
0.0
11
10.0
21
8.0
0
LINE
8
A-DOOR
10
10.0
20
8.0
11
10.0
21
10.0
0
ARC
8
A-DOOR
10
10.0
20
8.0
40
2.0
50
0.0
51
90.0
0
LINE
8
A-WINDOW
10
4.0
20
12.0
11
8.0
21
12.0
0
POLYLINE
8
A-COLUMN
66
1
70
1
0
VERTEX
8
A-COLUMN
10
4.0
20
4.0
0
VERTEX
8
A-COLUMN
10
6.0
20
4.0
0
VERTEX
8
A-COLUMN
10
6.0
20
6.0
0
VERTEX
8
A-COLUMN
10
4.0
20
6.0
0
SEQEND
8
A-COLUMN
0
CIRCLE
8
A-COLUMN
10
15.0
20
5.0
40
1.0
0
POLYLINE
8
A-ROOM
66
1
70
1
0
VERTEX
8
A-ROOM
10
0.0
20
0.0
0
VERTEX
8
A-ROOM
10
10.0
20
0.0
0
VERTEX
8
A-ROOM
10
10.0
20
12.0
0
VERTEX
8
A-ROOM
10
0.0
20
12.0
0
SEQEND
8
A-ROOM
0
POLYLINE
8
A-FURN
66
1
70
1
0
VERTEX
8
A-FURN
10
2.0
20
2.0
0
VERTEX
8
A-FURN
10
4.0
20
2.0
0
VERTEX
8
A-FURN
10
4.0
20
3.0
0
VERTEX
8
A-FURN
10
2.0
20
3.0
0
SEQEND
8
A-FURN
0
ENDSEC
0
EOF
